# xmcd
#
# Track frame offsets: 
#        150
#        13568
#        25741
#        38478
#        51739
#        64189
#        77912
#        89407
#        102009
#        113919
#        125900
#        138075
#        149136
#        163982
#
# Disc length: 2325 seconds
#
# Revision: 2
# Processed by: cddbd v1.5.2PL0 Copyright (c) Steve Scherf et al.
# Submitted via: ExactAudioCopy v0.99pb5
#
DISCID=c809130e
DTITLE=Neuneralmmusi - Ein Stück Heimat Nr. 12
DYEAR=1900
DGENRE=Folk
TTITLE0=Das Gipfelkreuz am Waxelstein
TTITLE1=Lustiges Stelldichein
TTITLE2=Harmonika Gaudi
TTITLE3=Schwarzwaldgrüße
TTITLE4=Rund um die Geierköpfe
TTITLE5=Goldtropfen Boarischer
TTITLE6=Ein Stück Heimat
TTITLE7=Original Kärntnerland-Polka
TTITLE8=Auf der Neuneralm
TTITLE9=Burschenfest am Irschenberg
TTITLE10=Da Zammaglaubte
TTITLE11=Gruss an Maximilian
TTITLE12=Grontoschön
TTITLE13=Auf Wiederseh'n in Garmisch-Partenkirchen
EXTD=
EXTT0=
EXTT1=
EXTT2=
EXTT3=
EXTT4=
EXTT5=
EXTT6=
EXTT7=
EXTT8=
EXTT9=
EXTT10=
EXTT11=
EXTT12=
EXTT13=
PLAYORDER=
